# xmcd
#
# Track frame offsets:
#	150
#	14312
#	27600
#	41658
#	62071
#	77555
#	93261
#	111243
#	125467
#	136594
#	149733
#	163837
#	180971
#	195535
#	210925
#	222112
#	238234
#
# Disc length: 3400 seconds
#
# Revision: 1
# Processed by: cddbd v1.5.2PL0 Copyright (c) Steve Scherf et al.
# Submitted via: audiograbber 1.83.01
#
DISCID=eb0d4611
DTITLE=Bo Göran Svensson - Din egen brandsoldat
DYEAR=2007
DGENRE=
TTITLE0=Din egen brandsoldat
TTITLE1=Det kan du lita på
TTITLE2=Samma trappuppgång
TTITLE3=Inte den blekaste aning
TTITLE4=Om jag redan vet
TTITLE5=Här behövs en karl
TTITLE6=Sven, vad hände sen
TTITLE7=Gröna Helena
TTITLE8=Tag med dig våra minnen
TTITLE9=Då var det bättre att jag ljög
TTITLE10=Jänke Bengt
TTITLE11=Han ville dig väl
TTITLE12=Jag började som löjtnant
TTITLE13=En annan man
TTITLE14=Ha den äran och god jul
TTITLE15=Bonde söker fru
TTITLE16=Din egen brandsoldat (Bonuslåt)
EXTD=
EXTT0=
EXTT1=
EXTT2=
EXTT3=
EXTT4=
EXTT5=
EXTT6=
EXTT7=
EXTT8=
EXTT9=
EXTT10=
EXTT11=
EXTT12=
EXTT13=
EXTT14=
EXTT15=
EXTT16=
PLAYORDER=
